<svg width="30" height="30" viewBox="0 0 30 30" fill="none" xmlns="http://www.w3.org/2000/svg">
<path d="M22.7453 17.8134L25.039 21.7871C25.1333 21.9507 25.1866 22.1348 25.1943 22.3235C25.2019 22.5122 25.1636 22.7 25.0828 22.8707C25.0019 23.0414 24.8808 23.1899 24.7299 23.3035C24.579 23.4172 24.4029 23.4925 24.2165 23.5231L24.0846 23.5359L23.954 23.5348L20.5321 23.3131L19.012 26.3884C18.9294 26.5549 18.8083 26.6994 18.6588 26.8097C18.5092 26.92 18.3355 26.993 18.152 27.0227C17.9685 27.0524 17.7806 27.0378 17.6039 26.9802C17.4272 26.9227 17.2668 26.8238 17.136 26.6918L17.0403 26.5821L16.9563 26.4538L14.6603 22.4789C16.2766 22.3779 17.8475 21.9041 19.2502 21.0947C20.6528 20.2853 21.8491 19.1622 22.7453 17.8134ZM13.335 22.4789L11.0413 26.4549C10.9484 26.616 10.8183 26.7526 10.6619 26.8532C10.5055 26.9539 10.3274 27.0157 10.1423 27.0337C9.95718 27.0516 9.77047 27.025 9.59769 26.9562C9.42492 26.8874 9.27107 26.7783 9.14896 26.6381L9.06029 26.5214L8.98563 26.3884L7.46429 23.3143L4.0448 23.5359C3.85644 23.548 3.66795 23.5143 3.49547 23.4376C3.32299 23.361 3.17167 23.2436 3.05446 23.0957C2.93725 22.9478 2.85765 22.7736 2.82247 22.5882C2.78729 22.4027 2.79758 22.2115 2.85246 22.0309L2.89913 21.9061L2.95746 21.7894L5.25346 17.8123C6.14908 19.1611 7.34468 20.2843 8.74669 21.0941C10.1487 21.9039 11.7191 22.3771 13.335 22.4789ZM14 3.83325L14.28 3.83792C16.3962 3.91052 18.4015 4.80224 19.8729 6.32499C21.3443 7.84773 22.1667 9.88244 22.1666 11.9999L22.1631 12.2251L22.155 12.4491L22.134 12.7349L22.1036 13.0173L22.0756 13.2249C21.9989 13.7285 21.875 14.2238 21.7058 14.7043L21.5705 15.0636L21.392 15.4696C20.7315 16.8766 19.6833 18.0659 18.3704 18.8979C17.0575 19.7299 15.5345 20.17 13.9802 20.1666C12.4259 20.1632 10.9049 19.7163 9.5957 18.8785C8.28652 18.0407 7.24356 16.8468 6.58929 15.4369L6.43763 15.0904L6.37696 14.9353L6.28363 14.6821L6.17279 14.3391C6.13321 14.2063 6.09703 14.0724 6.0643 13.9378L5.9943 13.6216L5.93713 13.3054L5.91379 13.1433L5.8683 12.7664L5.8403 12.3406L5.8333 11.9999C5.83326 9.88244 6.65567 7.84773 8.12705 6.32499C9.59843 4.80224 11.6037 3.91052 13.72 3.83792L14 3.83325Z" fill="#CED4DA"/>
<rect x="14" y="0.5" width="16" height="16" rx="8" fill="#E0282E"/>
<path d="M22.9766 4.37109V11.5H21.6826V5.87988L19.9688 6.44629V5.40137L22.8301 4.37109H22.9766Z" fill="white"/>
</svg>
