<svg width="24" height="25" viewBox="0 0 24 25" fill="none" xmlns="http://www.w3.org/2000/svg">
<g clip-path="url(#clip0_260_734)">
<path d="M6.69995 12.5C6.70369 13.6083 6.84249 14.712 7.11328 15.7867H11.4333V9.46667H7.05328C6.82283 10.4615 6.70432 11.4789 6.69995 12.5Z" fill="#CED4DA"/>
<path d="M12.5667 9.46667V15.7867H16.8867C17.1687 14.7134 17.3187 13.6097 17.3333 12.5C17.3311 11.4791 17.2149 10.4617 16.9866 9.46667H12.5667Z" fill="#CED4DA"/>
<path d="M11.9999 1.83337C9.89026 1.83337 7.82796 2.45896 6.07384 3.63103C4.31972 4.8031 2.95254 6.46901 2.14521 8.41808C1.33787 10.3672 1.12664 12.5119 1.53821 14.581C1.94979 16.6501 2.96569 18.5508 4.45745 20.0425C5.94921 21.5343 7.84983 22.5502 9.91896 22.9618C11.9881 23.3733 14.1328 23.1621 16.0819 22.3548C18.031 21.5474 19.6969 20.1802 20.8689 18.4261C22.041 16.672 22.6666 14.6097 22.6666 12.5C22.6666 9.67106 21.5428 6.95796 19.5424 4.95757C17.542 2.95718 14.8289 1.83337 11.9999 1.83337ZM20.1466 16.9734H17.7333C17.277 18.4019 16.6023 19.7512 15.7333 20.9734C15.092 21.2529 14.421 21.4586 13.7333 21.5867C14.9649 20.2484 15.9128 18.6745 16.5199 16.96H12.5733V21.7267H11.4466V16.9734H7.47992C8.0862 18.6902 9.03417 20.2664 10.2666 21.6067C9.59303 21.48 8.93565 21.2788 8.30659 21.0067C7.43447 19.7743 6.75971 18.4135 6.30659 16.9734H3.85326C3.64028 16.5849 3.45537 16.1816 3.29992 15.7667H5.96659C5.71672 14.6956 5.58703 13.5999 5.57992 12.5C5.58029 11.4805 5.68754 10.4639 5.89992 9.46671H3.17326C3.31345 9.05303 3.48277 8.6498 3.67992 8.26004H6.21992C6.69652 6.67273 7.43563 5.17648 8.40659 3.83337C9.0223 3.57825 9.66382 3.39049 10.3199 3.27337C8.9937 4.69674 7.99281 6.39144 7.38659 8.24004H11.4466V3.16671H12.5733V8.26004H16.6333C16.0281 6.4144 15.0296 4.7221 13.7066 3.30004C14.3616 3.4087 15.0031 3.58751 15.6199 3.83337C16.5852 5.16677 17.322 6.65149 17.7999 8.22671H20.3133C20.5104 8.61648 20.6797 9.0197 20.8199 9.43337H18.1133C18.3302 10.4412 18.4397 11.4691 18.4399 12.5C18.4365 13.6064 18.309 14.7088 18.0599 15.7867H20.7266C20.5616 16.1955 20.3678 16.5921 20.1466 16.9734Z" fill="#CED4DA"/>
</g>
<defs>
<clipPath id="clip0_260_734">
<rect width="24" height="24" fill="white" transform="translate(0 0.5)"/>
</clipPath>
</defs>
</svg>
