<svg width="25" height="24" viewBox="0 0 25 24" fill="none" xmlns="http://www.w3.org/2000/svg">
<path d="M10.4839 15L15.6739 12L10.4839 9V15ZM22.0439 7.17C22.1739 7.64 22.2639 8.27 22.3239 9.07C22.3939 9.87 22.4239 10.56 22.4239 11.16L22.4839 12C22.4839 14.19 22.3239 15.8 22.0439 16.83C21.7939 17.73 21.2139 18.31 20.3139 18.56C19.8439 18.69 18.9839 18.78 17.6639 18.84C16.3639 18.91 15.1739 18.94 14.0739 18.94L12.4839 19C8.29389 19 5.68389 18.84 4.65389 18.56C3.75389 18.31 3.17389 17.73 2.92389 16.83C2.79389 16.36 2.70389 15.73 2.64389 14.93C2.57389 14.13 2.54389 13.44 2.54389 12.84L2.48389 12C2.48389 9.81 2.64389 8.2 2.92389 7.17C3.17389 6.27 3.75389 5.69 4.65389 5.44C5.12389 5.31 5.98389 5.22 7.30389 5.16C8.60389 5.09 9.79389 5.06 10.8939 5.06L12.4839 5C16.6739 5 19.2839 5.16 20.3139 5.44C21.2139 5.69 21.7939 6.27 22.0439 7.17Z" fill="#CED4DA"/>
</svg>
