<svg width="19" height="18" viewBox="0 0 19 18" fill="none" xmlns="http://www.w3.org/2000/svg">
<path d="M16.4839 0C17.0143 0 17.523 0.210714 17.8981 0.585786C18.2732 0.960859 18.4839 1.46957 18.4839 2V16C18.4839 16.5304 18.2732 17.0391 17.8981 17.4142C17.523 17.7893 17.0143 18 16.4839 18H2.48389C1.95345 18 1.44475 17.7893 1.06967 17.4142C0.6946 17.0391 0.483887 16.5304 0.483887 16V2C0.483887 1.46957 0.6946 0.960859 1.06967 0.585786C1.44475 0.210714 1.95345 0 2.48389 0H16.4839ZM15.9839 15.5V10.2C15.9839 9.33539 15.6404 8.5062 15.0291 7.89483C14.4177 7.28346 13.5885 6.94 12.7239 6.94C11.8739 6.94 10.8839 7.46 10.4039 8.24V7.13H7.61389V15.5H10.4039V10.57C10.4039 9.8 11.0239 9.17 11.7939 9.17C12.1652 9.17 12.5213 9.3175 12.7838 9.58005C13.0464 9.8426 13.1939 10.1987 13.1939 10.57V15.5H15.9839ZM4.36389 5.56C4.80945 5.56 5.23677 5.383 5.55183 5.06794C5.86689 4.75288 6.04389 4.32556 6.04389 3.88C6.04389 2.95 5.29389 2.19 4.36389 2.19C3.91567 2.19 3.48581 2.36805 3.16888 2.68499C2.85194 3.00193 2.67389 3.43178 2.67389 3.88C2.67389 4.81 3.43389 5.56 4.36389 5.56ZM5.75389 15.5V7.13H2.98389V15.5H5.75389Z" fill="#CED4DA"/>
</svg>
