<svg width="21" height="17" viewBox="0 0 21 17" fill="none" xmlns="http://www.w3.org/2000/svg">
<path d="M20.9439 2C20.1739 2.35 19.3439 2.58 18.4839 2.69C19.3639 2.16 20.0439 1.32 20.3639 0.31C19.5339 0.81 18.6139 1.16 17.6439 1.36C16.8539 0.5 15.7439 0 14.4839 0C12.1339 0 10.2139 1.92 10.2139 4.29C10.2139 4.63 10.2539 4.96 10.3239 5.27C6.76393 5.09 3.59393 3.38 1.48393 0.79C1.11393 1.42 0.903926 2.16 0.903926 2.94C0.903926 4.43 1.65393 5.75 2.81393 6.5C2.10393 6.5 1.44393 6.3 0.863926 6V6.03C0.863926 8.11 2.34393 9.85 4.30393 10.24C3.67465 10.4122 3.01402 10.4362 2.37393 10.31C2.64553 11.1625 3.17746 11.9084 3.89494 12.4429C4.61242 12.9775 5.47937 13.2737 6.37393 13.29C4.85756 14.4904 2.97792 15.1393 1.04393 15.13C0.703926 15.13 0.363926 15.11 0.0239258 15.07C1.92393 16.29 4.18393 17 6.60393 17C14.4839 17 18.8139 10.46 18.8139 4.79C18.8139 4.6 18.8139 4.42 18.8039 4.23C19.6439 3.63 20.3639 2.87 20.9439 2Z" fill="#CED4DA"/>
</svg>
